<svg height="384pt" viewBox="0 0 384 384" width="384pt" xmlns="http://www.w3.org/2000/svg" fill="#FFFFFF"><path d="m268.566406 165.945312c2.1875-9.648437 3.433594-19.648437 3.433594-29.945312 0-74.992188-61.007812-136-136-136s-136 61.007812-136 136 61.007812 136 136 136c10.296875 0 20.296875-1.246094 29.945312-3.433594l30.734376 30.730469c.746093.75 1.566406 1.414063 2.457031 2.007813.382812.253906.792969.421874 1.183593.648437.519532.285156 1.015626.597656 1.566407.824219.519531.214844 1.066406.335937 1.601562.496094.464844.132812.902344.3125 1.382813.40625 1.03125.207031 2.082031.320312 3.128906.320312h32v32c0 1.046875.113281 2.097656.3125 3.136719.09375.472656.273438.910156.40625 1.367187.160156.542969.289062 1.089844.503906 1.617188.226563.535156.53125 1.023437.808594 1.535156.226562.40625.402344.832031.664062 1.222656.59375.882813 1.257813 1.707032 2.007813 2.449219l27.296875 27.296875c6.046875 6.046875 14.078125 9.375 22.625 9.375h57.375c17.648438 0 32-14.351562 32-32v-57.367188c0-8.542968-3.328125-16.585937-9.375-22.632812zm-236.566406-29.945312c0-57.34375 46.65625-104 104-104s104 46.65625 104 104-46.65625 104-104 104-104-46.65625-104-104zm320 216h-57.375l-22.625-22.625v-25.375c0-17.648438-14.351562-32-32-32h-25.375l-15.601562-15.601562c24.457031-12.855469 44.519531-32.910157 57.375-57.375l95.601562 95.609374zm0 0"/><path d="m120 72c-26.472656 0-48 21.527344-48 48s21.527344 48 48 48 48-21.527344 48-48-21.527344-48-48-48zm0 64c-8.824219 0-16-7.175781-16-16s7.175781-16 16-16 16 7.175781 16 16-7.175781 16-16 16zm0 0"/></svg>