<svg fill="#FFFFFF" height="384pt" viewBox="-24 0 384 384" width="384pt" xmlns="http://www.w3.org/2000/svg"><path d="m135.996094 192c8.832031 0 16-7.167969 16-16s-7.167969-16-16-16h-8c-8.832032 0-16 7.167969-16 16s7.167968 16 16 16zm0 0"/><path d="m207.996094 256h-8c-8.832032 0-16 7.167969-16 16s7.167968 16 16 16h8c8.832031 0 16-7.167969 16-16s-7.167969-16-16-16zm0 0"/><path d="m211.308594 180.6875c-6.246094-6.246094-16.375-6.246094-22.621094 0l-64 64c-6.25 6.25-6.25 16.375 0 22.625 3.125 3.128906 7.214844 4.6875 11.308594 4.6875 4.097656 0 8.1875-1.558594 11.3125-4.6875l64-64c6.25-6.25 6.25-16.375 0-22.625zm0 0"/><path d="m59.308594 60.6875c-6.246094-6.246094-16.375-6.246094-22.621094 0l-32 32c-6.25 6.25-6.25 16.375 0 22.625 3.125 3.128906 7.214844 4.6875 11.308594 4.6875 4.097656 0 8.1875-1.558594 11.3125-4.6875l4.6875-4.6875 12.105468 12.101562c-23.382812 28.554688-36.105468 63.960938-36.105468 101.273438 0 88.222656 71.777344 160 160 160 88.226562 0 160-71.777344 160-160 0-37.304688-12.710938-72.695312-36.101563-101.273438l12.101563-12.101562 4.691406 4.6875c3.125 3.128906 7.214844 4.6875 11.308594 4.6875 4.097656 0 8.1875-1.558594 11.3125-4.6875 6.25-6.25 6.25-16.375 0-22.625l-32-32c-6.246094-6.246094-16.375-6.246094-22.621094 0-6.25 6.25-6.25 16.375 0 22.625l4.6875 4.6875-12.105469 12.105469c-24.441406-20.015625-53.902343-32.210938-85.273437-35.3125v-32.792969h16c8.832031 0 16-7.167969 16-16s-7.167969-16-16-16h-64c-8.832032 0-16 7.167969-16 16s7.167968 16 16 16h16v32.792969c-31.359375 3.101562-60.8125 15.296875-85.269532 35.3125l-12.105468-12.105469 4.6875-4.6875c6.25-6.25 6.25-16.375 0-22.625zm124.6875 290.199219v-14.886719c0-8.832031-7.167969-16-16-16-8.832032 0-16 7.167969-16 16v14.886719c-57.78125-7.253907-103.628906-53.101563-110.886719-110.886719h14.886719c8.832031 0 16-7.167969 16-16s-7.167969-16-16-16h-14.894532c3.496094-28.089844 16.023438-54.128906 36.34375-74.503906 20.425782-20.351563 46.464844-32.886719 74.542969-36.382813v14.886719c0 8.832031 7.167969 16 16 16s16-7.167969 16-16v-14.894531c28.082031 3.496093 54.121094 16.03125 74.515625 36.351562 20.351563 20.40625 32.878906 46.453125 36.375 74.542969h-14.882812c-8.832032 0-16 7.167969-16 16s7.167968 16 16 16h14.890625c-7.257813 57.785156-53.105469 103.632812-110.890625 110.886719zm0 0"/></svg>